<?xml version="1.0" encoding="UTF-8"?>
<svg id="Layer_1" data-name="Layer 1" xmlns="http://www.w3.org/2000/svg" xmlns:xlink="http://www.w3.org/1999/xlink" viewBox="0 0 96.39 57.72">
  <defs>
    <style>
      .cls-1 {
        fill: url(#linear-gradient-12);
      }

      .cls-1, .cls-2, .cls-3, .cls-4, .cls-5, .cls-6, .cls-7, .cls-8, .cls-9, .cls-10, .cls-11, .cls-12, .cls-13, .cls-14, .cls-15, .cls-16, .cls-17, .cls-18, .cls-19, .cls-20, .cls-21, .cls-22, .cls-23, .cls-24 {
        stroke-width: 0px;
      }

      .cls-2 {
        fill: url(#linear-gradient);
      }

      .cls-3 {
        fill: #000;
      }

      .cls-4 {
        fill: url(#Beak_Gradient_Swatch);
      }

      .cls-5 {
        fill: #ff1515;
      }

      .cls-6 {
        fill: url(#linear-gradient-6);
      }

      .cls-7 {
        fill: url(#EyeColor2);
      }

      .cls-8 {
        fill: url(#linear-gradient-11);
      }

      .cls-9 {
        fill: url(#linear-gradient-5);
      }

      .cls-10 {
        fill: none;
      }

      .cls-11 {
        opacity: .3;
      }

      .cls-11, .cls-20 {
        fill: #232323;
      }

      .cls-12, .cls-14 {
        fill: #080808;
      }

      .cls-12, .cls-25 {
        opacity: .4;
      }

      .cls-13 {
        fill: url(#linear-gradient-13);
      }

      .cls-15 {
        fill: url(#linear-gradient-14);
      }

      .cls-16 {
        fill: url(#linear-gradient-2);
      }

      .cls-17 {
        fill: url(#linear-gradient-7);
      }

      .cls-18 {
        fill: url(#linear-gradient-3);
      }

      .cls-26 {
        clip-path: url(#clippath);
      }

      .cls-19 {
        fill: url(#linear-gradient-9);
      }

      .cls-21 {
        fill: url(#linear-gradient-8);
      }

      .cls-22 {
        fill: url(#linear-gradient-10);
      }

      .cls-23 {
        fill: url(#linear-gradient-4);
      }

      .cls-24 {
        fill: #3876ff;
      }
    </style>
    <clipPath id="clippath">
      <rect class="cls-10" width="96.39" height="57.72"/>
    </clipPath>
    <linearGradient id="linear-gradient" x1="-262.2" y1="482.78" x2="-262.08" y2="480.49" gradientTransform="translate(424.39 -580.05) rotate(3.83) scale(1.26 1.25) skewX(3.22)" gradientUnits="userSpaceOnUse">
      <stop offset="0" stop-color="#3d2a18"/>
      <stop offset=".3" stop-color="#2b1d10"/>
      <stop offset=".69" stop-color="#1c120a"/>
      <stop offset="1" stop-color="#170f08"/>
    </linearGradient>
    <linearGradient id="linear-gradient-2" x1="-262.56" y1="484.7" x2="-262.4" y2="482.06" xlink:href="#linear-gradient"/>
    <linearGradient id="linear-gradient-3" x1="-265.56" y1="556.7" x2="-265.35" y2="553.46" gradientTransform="translate(413.69 -675.17) rotate(2.49) scale(1.26 1.25) skewX(3.22)" xlink:href="#linear-gradient"/>
    <linearGradient id="linear-gradient-4" x1="-260.29" y1="359.99" x2="-260.05" y2="356.26" gradientTransform="translate(439.9 -403.94) rotate(6.33) scale(1.26 1.25) skewX(3.22)" xlink:href="#linear-gradient"/>
    <linearGradient id="linear-gradient-5" x1="-276.53" y1="91.08" x2="-276.92" y2="85.72" gradientTransform="translate(448.14 -30.63) rotate(11.62) scale(1.26 1.25) skewX(3.22)" xlink:href="#linear-gradient"/>
    <linearGradient id="linear-gradient-6" x1="-322.31" y1="-190.71" x2="-322.74" y2="-193.91" gradientTransform="translate(419.82 366.28) rotate(17.26) scale(1.26 1.25) skewX(3.22)" xlink:href="#linear-gradient"/>
    <linearGradient id="linear-gradient-7" x1="70.85" y1="25.79" x2="80.17" y2="26.17" gradientUnits="userSpaceOnUse">
      <stop offset="0" stop-color="#1f150c"/>
      <stop offset="1" stop-color="#170f08"/>
    </linearGradient>
    <linearGradient id="linear-gradient-8" x1="84.3" y1="49.44" x2="56.02" y2="79.5" gradientUnits="userSpaceOnUse">
      <stop offset="0" stop-color="#170f08"/>
      <stop offset=".3" stop-color="#342418"/>
      <stop offset=".96" stop-color="#7f5a41"/>
      <stop offset="1" stop-color="#855e44"/>
    </linearGradient>
    <linearGradient id="linear-gradient-9" x1="104.67" y1="51.1" x2="66.77" y2="94.24" gradientUnits="userSpaceOnUse">
      <stop offset=".09" stop-color="#170f08"/>
      <stop offset=".45" stop-color="#3f2c1e"/>
      <stop offset="1" stop-color="#855e44"/>
    </linearGradient>
    <linearGradient id="linear-gradient-10" x1="-1115.96" y1="-1710" x2="-1115.44" y2="-1713.99" gradientTransform="translate(-530.58 2572.19) rotate(49.04) scale(1.25) skewX(3.32)" gradientUnits="userSpaceOnUse">
      <stop offset="0" stop-color="#3d2a18"/>
      <stop offset=".27" stop-color="#2d1f11"/>
      <stop offset=".69" stop-color="#1d130a"/>
      <stop offset="1" stop-color="#170f08"/>
    </linearGradient>
    <linearGradient id="linear-gradient-11" x1="-1044.57" y1="-1632.87" x2="-1044.27" y2="-1636.88" gradientTransform="translate(-414.96 2467.14) rotate(46.35) scale(1.25 1.26) skewX(3.28)" xlink:href="#linear-gradient-10"/>
    <linearGradient id="linear-gradient-12" x1="-1041.21" y1="-1631.4" x2="-1040.7" y2="-1635.17" gradientTransform="translate(-349.27 2479.64) rotate(43.96) scale(1.24 1.27) skewX(2.89)" xlink:href="#linear-gradient-10"/>
    <linearGradient id="linear-gradient-13" x1="-969.76" y1="-1545.59" x2="-969.19" y2="-1548.8" gradientTransform="translate(-252.33 2353.64) rotate(41.74) scale(1.24 1.27) skewX(2.89)" gradientUnits="userSpaceOnUse">
      <stop offset="0" stop-color="#3d2a18"/>
      <stop offset="1" stop-color="#170f08"/>
    </linearGradient>
    <linearGradient id="Beak_Gradient_Swatch" data-name="Beak Gradient Swatch" x1="52.31" y1="29.26" x2="51.66" y2="40.86" gradientUnits="userSpaceOnUse">
      <stop offset="0" stop-color="#f48a00"/>
      <stop offset=".19" stop-color="#ef8600"/>
      <stop offset=".39" stop-color="#e37b01"/>
      <stop offset=".6" stop-color="#cd6a03"/>
      <stop offset=".81" stop-color="#b05106"/>
      <stop offset="1" stop-color="#8e350a"/>
    </linearGradient>
    <linearGradient id="linear-gradient-14" x1="61.18" y1="24.63" x2="68.44" y2="35.63" gradientUnits="userSpaceOnUse">
      <stop offset=".09" stop-color="#fff"/>
      <stop offset=".56" stop-color="#d7d7d7"/>
      <stop offset=".94" stop-color="#b6b6b6"/>
    </linearGradient>
    <radialGradient id="EyeColor2" cx="55.25" cy="27.84" fx="55.25" fy="27.84" r="1.73" gradientUnits="userSpaceOnUse">
      <stop offset="0" stop-color="#f6dc95"/>
      <stop offset=".22" stop-color="#f2d892"/>
      <stop offset=".41" stop-color="#e8ce89"/>
      <stop offset=".58" stop-color="#d8bc7a"/>
      <stop offset=".75" stop-color="#c0a366"/>
      <stop offset=".91" stop-color="#a3844b"/>
      <stop offset="1" stop-color="#90703b"/>
    </radialGradient>
  </defs>
  <g class="cls-26">
    <g>
      <polygon class="cls-3" points="13.43 25.33 17.03 25.33 17.03 35.07 19.85 35.07 19.85 25.33 23.46 25.33 23.46 22.71 13.43 22.71 13.43 25.33"/>
      <polygon class="cls-3" points="27.76 30.08 32.9 30.08 32.9 35.07 35.74 35.07 35.74 22.71 32.9 22.71 32.9 27.46 27.76 27.46 27.76 22.7 24.92 22.7 24.92 35.07 27.76 35.07 27.76 30.08"/>
      <polygon class="cls-3" points="46.28 32.46 40.99 32.46 40.99 30.11 45.35 30.11 45.35 27.59 40.99 27.59 40.99 25.33 46.2 25.33 46.2 22.71 38.14 22.71 38.14 35.07 46.28 35.07 46.28 32.46"/>
      <polygon class="cls-3" points="17.19 45.11 21.55 45.11 21.55 42.59 17.19 42.59 17.19 40.33 22.4 40.33 22.4 37.71 14.34 37.71 14.34 50.07 22.48 50.07 22.48 47.46 17.19 47.46 17.19 45.11"/>
      <path class="cls-3" d="M31.28,37.71h-2.83l-4.8,12.36h3l.88-2.35h4.88l.88,2.35h3l-4.8-12.36h-.21ZM28.47,45.22l1.5-4.01,1.5,4.01h-3Z"/>
      <path class="cls-3" d="M42.75,45.48h2.79c-.04.38-.14.73-.33,1.02-.25.38-.58.67-1.01.88-.42.21-.91.32-1.46.32-.73,0-1.37-.17-1.92-.49-.55-.33-.98-.78-1.27-1.35-.29-.57-.44-1.23-.44-1.97s.15-1.4.46-1.97c.31-.57.73-1.02,1.26-1.33.54-.32,1.15-.48,1.85-.48.35,0,.7.06,1.04.19s.66.3.94.52c.29.22.52.48.7.76l2.35-1.41c-.32-.52-.72-.98-1.2-1.38-.48-.4-1.04-.72-1.69-.94s-1.36-.34-2.14-.34c-1.27,0-2.39.27-3.36.82-.97.55-1.73,1.3-2.29,2.26s-.83,2.06-.83,3.31.28,2.35.83,3.31c.55.96,1.32,1.71,2.29,2.26.97.55,2.09.82,3.36.82,1.11,0,2.08-.21,2.91-.64.83-.42,1.49-1.05,1.98-1.88.45-.77.68-1.71.71-2.79h.01v-1.68h-5.53v2.19Z"/>
      <polygon class="cls-3" points="52.67 37.71 49.83 37.71 49.83 50.07 57.94 50.07 57.94 47.46 52.67 47.46 52.67 37.71"/>
      <polygon class="cls-3" points="62.3 45.11 66.66 45.11 66.66 42.59 62.3 42.59 62.3 40.33 67.51 40.33 67.51 37.71 59.45 37.71 59.45 50.07 67.59 50.07 67.59 47.46 62.3 47.46 62.3 45.11"/>
      <path class="cls-3" d="M75.45,42.87l-1.75-.44c-.39-.09-.69-.24-.92-.43-.22-.19-.34-.44-.34-.73,0-.42.14-.75.42-.97s.66-.34,1.16-.34.9.13,1.21.39c.31.26.51.55.61.86l2.79-.83c-.25-.64-.58-1.17-1-1.59-.42-.42-.92-.74-1.51-.96-.59-.22-1.28-.33-2.07-.33-1.44,0-2.55.33-3.34,1-.79.67-1.18,1.59-1.18,2.78,0,.61.13,1.16.38,1.63.25.48.61.88,1.06,1.21.45.33.99.57,1.6.72l1.75.44c.42.12.75.29.98.51s.34.48.34.78c0,.38-.16.68-.49.92-.32.24-.73.35-1.21.34-.49-.01-.9-.14-1.23-.4-.32-.25-.55-.55-.68-.89l-2.81.79c.07.4.25.77.53,1.12.28.35.64.66,1.09.94.44.28.94.49,1.48.65.55.16,1.12.24,1.72.24.97,0,1.79-.15,2.47-.45.68-.3,1.2-.73,1.56-1.28.36-.55.54-1.22.54-2,0-.86-.28-1.63-.84-2.3-.56-.68-1.34-1.14-2.34-1.39Z"/>
    </g>
    <g id="TheEaglesLogo_FixedEye">
      <g id="WingRight">
        <g>
          <path class="cls-2" d="M72.2-1.91s24.63.45,31.43.55c-.78.7-1.8,1.07-2.64,1.82-7.02-.07-14.47-.08-28.26-.24.94-.82-1.51-1.31-.52-2.13Z"/>
          <g>
            <path class="cls-16" d="M73.13.19c11.67-.02,22.69.14,28.65.11-.74.83-1.84,1.26-2.64,2.15-6.09.01-14.06.03-24.98.05.78-.89-1.83-1.43-1.03-2.31Z"/>
            <path class="cls-12" d="M98.8,1.42h-.73c-5.75-.06-23.73.06-23.73.06l-.28-.47c9.82.15,18.4,0,24.12.09h.87s-.24.31-.24.31Z"/>
          </g>
          <g>
            <path class="cls-18" d="M74.23,2.49c11.21-.57,21.63-.36,27.46-.7-.7.85-1.53,1.09-2.27,1.99-5.9.31-13.6.7-24.07,1.25,0,0-1.85-1.65-1.12-2.54Z"/>
            <path class="cls-12" d="M99.61,2.79l-.71.03c-5.57.23-14.07.69-23.76,1.09l.21-.46c9.63-.34,18.1-.74,23.64-.93l.84-.03-.23.3Z"/>
          </g>
          <g>
            <path class="cls-23" d="M75.19,4.87c11.84-.58,22.58-.98,28.49-1.28-.78.91-1.58,1.86-2.42,2.85-6.03.33-14.03.76-25.16,1.35,0,0-1.82-1.93-.92-2.92Z"/>
            <path class="cls-12" d="M101,5.37l-.72.03c-5.7.23-14.7.65-25,1.07l.29-.51c10.23-.35,19.17-.7,24.84-.89l.86-.03-.26.33Z"/>
          </g>
          <g>
            <path class="cls-9" d="M75.67,7.36c11.46-.37,22.45-.69,28.1-.87-.84.92-1.72,1.88-2.63,2.88-5.79.2-25.46,1.08-25.46,1.08,0,0-1.05-2.09-.01-3.09Z"/>
            <path class="cls-12" d="M101.02,8.35l-.69.02c-5.43.12-15.08.52-24.87.75l.36-.52c9.7-.15,19.28-.49,24.67-.57h.82s-.29.32-.29.32Z"/>
          </g>
          <g>
            <path class="cls-6" d="M74.84,10.3c11.07-.12,22.69-.93,28.32-.99-.95.96-2.28,2.66-3.32,3.71-5.8.06-13.37.15-23.65.26,0,0-2.53-1.96-1.34-2.98Z"/>
            <path class="cls-12" d="M99.8,11.73l-.54-.62c-5.42-.01-24.1.8-24.1.8l.45-.54s18.48-.68,23.85-.62l.66.63-.33.35Z"/>
          </g>
        </g>
        <g>
          <polygon class="cls-14" points="77.51 13.21 74.29 15.09 71.98 1.53 74.66 .72 77.51 13.21"/>
          <polygon class="cls-14" points="74.66 .72 72.25 2.29 67.58 -7.05 67.4 -7.41 69.72 -8.21 74.66 .72"/>
        </g>
        <g id="Dots">
          <path class="cls-20" d="M76.07,11.4c-.2.4-.63.57-1.01.4-.38-.17-.52-.6-.32-1,.2-.4.63-.57,1.01-.4s.51.6.32,1Z"/>
          <path class="cls-20" d="M75.2,7.81c-.18.32-.54.45-.86.34-.37-.14-.52-.61-.31-.98.18-.31.54-.45.86-.33.37.14.52.61.31.98Z"/>
          <path class="cls-20" d="M74.53,4.57c-.17.29-.51.42-.81.31-.35-.13-.49-.58-.29-.92.17-.29.51-.42.81-.31.35.13.49.57.29.92Z"/>
          <path class="cls-20" d="M73.83,1.49c-.15.26-.46.37-.73.27-.32-.12-.44-.52-.26-.82.15-.26.46-.37.73-.27.31.12.44.52.26.82Z"/>
        </g>
      </g>
      <polygon id="Neck" class="cls-17" points="87.49 12.46 72.93 13.34 69.42 15.18 69.1 15.76 69.52 16.07 71.16 16.23 69.34 17.86 68.99 18.95 71.89 18.54 70.27 21.29 73.87 20.24 72.29 22.36 72.25 22.94 75.84 23.55 72.68 25.61 74.85 26.7 72.41 28.07 75.69 30.63 71.25 29.96 70.02 30.41 69.96 30.51 74.68 34.73 80.66 40.21 86.49 25.54 95.27 18.39 87.49 12.46"/>
      <g id="LegRight">
        <path class="cls-21" d="M89.41,15.72l-6.07,4.52-2.55,10.07-.13,9.9s7.65,7.6,8.81,15.02l-.62,6.58-9.32,10.49,2.44,2.09,17.08-10.4,7.46-9.73,11.99-17.91-9.53-9.42-19.55-11.22Z"/>
      </g>
      <polygon id="LegLeft" class="cls-19" points="97.04 58.1 89.8 66.99 91.97 67.89 92.41 68.8 103 61.44 107.56 52.86 103.51 43.99 97.04 58.1"/>
      <ellipse id="WingShadowControl" class="cls-14" cx="85.54" cy="17.32" rx="1.6" ry="2.59" transform="translate(67.75 102.77) rotate(-89.69)"/>
      <g id="WingLeft">
        <g>
          <g>
            <path class="cls-22" d="M97.37-2.98c3.91,7.48,7.82,14.95,11.73,22.43-1.54.24-3.07.48-4.61.72-2.96-5.92-6.88-11.41-9.84-17.33.59-1.8,2.13-4.03,2.72-5.82Z"/>
            <path class="cls-8" d="M94.43,2.25l11.53,19.46c-1.52.32-3.21.32-4.73.63-2.94-5.62-5.73-10.14-8.66-15.76.87-1.44,1-2.89,1.86-4.33Z"/>
            <path class="cls-1" d="M92.73,6.42c3.26,5.57,6.53,11.14,9.79,16.71-1.38.35-3.16.85-4.57.2-1.96-.9-5.19-8.3-7.64-13.1.57-1.12,1.86-2.68,2.43-3.81Z"/>
            <path class="cls-13" d="M90.51,9.82c3.12,4.53,9.97,15.78,9.97,15.78-1.97-.05-5-1.22-5.69-1.82-1.58-1.38-4.27-7.3-5.86-10.53-.56-1.13,1.05-2.29,1.58-3.44Z"/>
          </g>
          <g id="Bones" class="cls-25">
            <g>
              <polygon class="cls-14" points="98.94 21.13 91.25 8.15 91.83 7.94 99.52 21.11 98.94 21.13"/>
              <path class="cls-14" d="M96.08,22.47s-7.21-10.97-8.41-12.76l.59-.39c1.2,1.8,8.49,13.2,8.49,13.2l-.66-.04Z"/>
              <polygon class="cls-14" points="105.23 17.89 95.2 -.96 95.83 -1.29 106.02 17.8 105.23 17.89"/>
              <polygon class="cls-14" points="102.24 19.86 93.06 3.68 93.5 3.44 102.8 19.82 102.24 19.86"/>
            </g>
          </g>
        </g>
        <g id="RobotWingArm">
          <path class="cls-14" d="M87.57,17.89l-4.46-.16s10.6-22.07,14.92-31.05c1.95-.86,3.9-1.72,5.84-2.58-4.39,9.11-16.31,33.79-16.31,33.79Z"/>
          <g id="Transparent">
            <g id="White">
              <g>
                <path class="cls-20" d="M93.7,2.62c-.23.48-.78.67-1.26.44-.48-.23-.67-.78-.44-1.26.23-.48.78-.67,1.26-.44s.67.78.44,1.26Z"/>
                <path class="cls-20" d="M91.46,7.27c-.23.48-.78.67-1.26.44-.48-.23-.67-.78-.44-1.26.23-.48.78-.67,1.26-.44s.67.78.44,1.26Z"/>
                <path class="cls-20" d="M89.22,11.92c-.23.48-.78.67-1.26.44-.48-.23-.67-.78-.44-1.26.23-.48.78-.67,1.26-.44s.67.78.44,1.26Z"/>
                <path class="cls-20" d="M86.97,16.57c-.23.48-.78.67-1.26.44-.48-.23-.67-.78-.44-1.26.23-.48.78-.67,1.26-.44s.67.78.44,1.26Z"/>
              </g>
            </g>
          </g>
        </g>
      </g>
      <g id="Head">
        <path id="Beak" class="cls-4" d="M59.56,31.38l-10.49-2.17-.68-.48-2.26,2.62c-.46.53-.82,1.12-1.05,1.75-.6,1.62-.57,3.28-.26,4.4l.07.25c.16.59,1.01,1.53,1.76,2.02l2.32,1.46-.98-2.84,7.49-5.22,4.08-1.78Z"/>
        <g id="BeakDetails">
          <path id="Mouth" class="cls-11" d="M57.89,31.04c-.9.27-2.53.89-5.45,2.36-5.52,2.78-4.45,4.99-4.45,4.99l7.49-5.22,4.08-1.78-1.68-.35Z"/>
          <path id="Nose" class="cls-11" d="M49.98,30.64c1.38.08,1.06.46,1.06.46-1.81.37-2.07-.33-2.07-.33,0,0-.05-.19,1.01-.14Z"/>
        </g>
        <polygon id="Head-2" data-name="Head" class="cls-15" points="74.85 26.7 72.68 25.61 75.84 23.55 72.25 22.94 72.29 22.36 73.87 20.24 70.27 21.29 71.89 18.54 68.99 18.95 69.34 17.86 71.16 16.23 69.52 16.07 69.1 15.76 70.01 14.13 63.12 17.47 61.17 17.04 50.65 22.59 47.95 27.31 47.95 28.43 49.07 29.21 60.17 31.51 69.43 31.51 70.02 30.41 71.25 29.96 75.69 30.63 72.41 28.07 74.85 26.7"/>
        <g id="Eye">
          <polygon id="EyeBG" class="cls-3" points="51.45 28.39 56.27 28.95 59.89 24.13 51.45 28.39"/>
          <path id="Eye-2" data-name="Eye" class="cls-7" d="M56.98,28c.03-.29-.02-.59-.15-.87-.21-.46-.59-.78-1.03-.93l-2.2,1.11c-.13.4-.11.84.07,1.25.02.03.03.07.05.1l2.55.29.72-.95Z"/>
          <path id="Shutter" class="cls-3" d="M55.93,27.52h0s0-.01,0-.01h0s-.47-.32-.47-.32c.29.02,1.02.1,1.53.5,0-.04,0-.08-.02-.12-.67-.46-1.6-.47-1.64-.47h-.02s-.49.25-.49.25c.18-.26.66-.86,1.29-1.02-.04-.02-.08-.04-.12-.06-.79.25-1.31,1.12-1.33,1.16h0s0,0,0,0l-.04.58c-.1-.18-.3-.6-.36-1.03l-.09.04c.08.56.4,1.09.42,1.12h0s.01.02.01.02h0s.48.32.48.32c-.29,0-1.14-.02-1.57-.48,0,.05.01.09.02.14.44.38,1.15.43,1.48.43.1,0,.16,0,.17,0h.02s0,0,0,0l.52-.25c-.07.12-.21.32-.4.54h.11c.27-.29.42-.57.43-.59h0s0-.02,0-.02l.04-.54c.11.24.33.78.37,1.25l.08-.11c-.08-.61-.41-1.27-.43-1.31Z"/>
        </g>
        <g id="Wires">
          <polygon class="cls-3" points="61.56 20 60.35 20.05 60.96 17.93 62.14 18.73 61.56 20"/>
          <polygon class="cls-3" points="72.97 14.8 73.61 14.51 73.77 17.01 72.8 16.5 72.97 14.8"/>
          <g>
            <path class="cls-5" d="M73.52,14.97c-.58-1.19-3.59,2.14-4.06,2.5-.84.65-1.92.64-2.93.62-.82-.02-1.6,0-2.41.13s-1.53.29-2.29.49c-.46.12-.74.29-.91.74-.13.34.41.48.54.15.15-.4,1.37-.57,1.72-.65.66-.15,1.36-.25,2.04-.29,1.26-.07,2.58.19,3.8-.28.85-.33,1.37-1.05,2.03-1.64.18-.16,1.96-1.53,1.98-1.48.16.32.64.04.48-.28h0Z"/>
            <path class="cls-24" d="M61.41,19.05c.37-1.53,2.93-1.68,4.2-1.73,1.4-.06,2.8.06,4.18.32.82.15,1.83.25,2.64-.01.66-.21.84-.54,1.14-1.11.17-.32-.32-.6-.48-.28-.14.26-.23.53-.47.7-.43.31-1.07.27-1.57.27-1.37,0-2.75-.39-4.14-.44-1.78-.06-5.48-.1-6.03,2.15-.09.35.45.5.54.15h0Z"/>
          </g>
        </g>
      </g>
    </g>
  </g>
</svg>