<?xml version="1.0" encoding="UTF-8"?>
<svg id="Layer_1" data-name="Layer 1" xmlns="http://www.w3.org/2000/svg" viewBox="0 0 540.3 188.01">
  <defs>
    <style>
      .cls-1 {
        fill: #98989a;
      }

      .cls-1, .cls-2, .cls-3, .cls-4, .cls-5 {
        stroke-width: 0px;
      }

      .cls-2 {
        fill: none;
      }

      .cls-3 {
        fill: #ed1c24;
      }

      .cls-4 {
        fill: #fff;
      }

      .cls-5 {
        fill: #0066b3;
      }
    </style>
  </defs>
  <g>
    <path class="cls-4" d="M268.68,85.98h-9.97v25.92h-8.7v-25.92h-9.97v-7.49h28.64v7.49Z"/>
    <path class="cls-4" d="M269.7,78.49h26.63v6.97h-17.92v5.85h16.38v6.74h-16.38v6.36h18.39v7.49h-27.1v-33.41Z"/>
    <path class="cls-4" d="M321.13,90.42c-.46-3.37-3.09-5.15-6.74-5.15-5.61,0-7.77,4.96-7.77,9.92s2.16,9.92,7.77,9.92c4.07,0,6.41-2.34,6.74-6.18h8.7c-.47,8.61-6.78,13.67-15.25,13.67-10.11,0-16.66-7.72-16.66-17.41s6.55-17.41,16.66-17.41c7.21,0,15.02,4.59,15.25,12.63h-8.7Z"/>
    <path class="cls-4" d="M331.56,78.49h8.71v12.17h11.46v-12.17h8.7v33.41h-8.7v-13.75h-11.46v13.75h-8.71v-33.41Z"/>
  </g>
  <g>
    <path class="cls-4" d="M263.25,132.2c-.47-3.37-3.09-5.15-6.74-5.15-5.61,0-7.77,4.96-7.77,9.92s2.15,9.92,7.77,9.92c4.07,0,6.41-2.34,6.74-6.18h8.7c-.46,8.61-6.78,13.67-15.25,13.67-10.1,0-16.66-7.72-16.66-17.41s6.55-17.4,16.66-17.4c7.21,0,15.02,4.58,15.25,12.63h-8.7Z"/>
    <path class="cls-4" d="M273.68,120.27h8.7v12.17h11.47v-12.17h8.71v33.41h-8.71v-13.75h-11.47v13.75h-8.7v-33.41Z"/>
    <path class="cls-4" d="M314.72,120.27h8.84l12.5,33.41h-9.08l-2.06-5.99h-11.65l-2.1,5.99h-8.94l12.5-33.41ZM315.28,141.24h7.58l-3.7-11.7h-.09l-3.79,11.7Z"/>
    <path class="cls-4" d="M335.78,120.27h8.7v25.92h15.58v7.49h-24.28v-33.41Z"/>
    <path class="cls-4" d="M361.56,120.27h8.71v25.92h15.58v7.49h-24.29v-33.41Z"/>
    <path class="cls-4" d="M387.34,120.27h26.63v6.97h-17.92v5.85h16.38v6.74h-16.38v6.36h18.39v7.49h-27.1v-33.41Z"/>
    <path class="cls-4" d="M416.5,120.27h8.93l11.61,20.59h.09v-20.59h8.19v33.41h-8.94l-11.6-20.82h-.09v20.82h-8.19v-33.41Z"/>
    <path class="cls-4" d="M479.3,153.68h-5.62l-.51-3.65c-2.29,3.23-6.22,4.36-9.32,4.36-10.1,0-16.66-7.72-16.66-17.41s6.55-17.4,16.66-17.4c6.93,0,14.32,3.7,15.12,12.07h-8.71c-.28-2.86-3.09-4.59-6.6-4.59-5.62,0-7.77,4.96-7.77,9.92s2.15,9.92,7.77,9.92c4.3,0,7.21-2.01,7.67-5.05h-6.08v-6.45h14.04v18.29Z"/>
    <path class="cls-4" d="M482.05,120.27h26.63v6.97h-17.93v5.85h16.38v6.74h-16.38v6.36h18.39v7.49h-27.09v-33.41Z"/>
  </g>
  <g>
    <path class="cls-1" d="M127.17,72.73c3.5,0,6.89.32,10.14.91l7.71-8.04c-5.39-1.87-11.45-2.91-17.84-2.91-10.88,0-20.75,3.03-28.08,7.97l6.72,6.37c6.21-2.72,13.52-4.3,21.36-4.3Z"/>
    <path class="cls-4" d="M127.17,62.69c6.4,0,12.45,1.05,17.84,2.91l8.38-8.73c-7.82-3.08-16.74-4.84-26.23-4.84-14.13,0-27.03,3.89-36.87,10.29l8.79,8.33c7.32-4.94,17.2-7.97,28.08-7.97Z"/>
    <path class="cls-1" d="M86.92,96.84c.7-2.88,2.01-5.61,3.8-8.14l-3.38-3.41c-.67,2.1-1.04,4.29-1.04,6.54,0,1.71.21,3.39.61,5.02Z"/>
    <path class="cls-1" d="M61.96,115.73l-1.42,7.35,14.11-6.07c-.89-1.87-1.07-4.31-1.58-6.3l-11.11,5.02Z"/>
    <polygon class="cls-1" points="52.04 35.79 31.62 147.59 41.27 148.38 61.49 34.95 52.04 35.79"/>
    <path class="cls-3" d="M120.69,100.13v-9.04l-14.83-14.06-6.72-6.37-8.8-8.33-28.89-27.39-20.22,113.43,42.79-18.81c-4.26-3.77-7.28-7.78-9.52-12.51l-13.93,5.98,1.4-7.31,9.03-47.05.75-3.95,7.45,7.5,9.59,9.66,4.12,4.15,16.93,14.58-16.43,7.53c4.27,4.26,9.32,8.02,16.14,10.14l20.5-9.21-9.35-8.96Z"/>
    <path class="cls-2" d="M171.94,68.64c6.97,6.89,11.1,15.45,11.1,24.72,0,1.7-.15,3.38-.42,5.02.27,1.65.42,3.32.42,5.02,0,7.09-2.42,13.76-6.67,19.58l27.87-29.02-29.45-28.28-2.84,2.96Z"/>
    <path class="cls-2" d="M158.21,82.93l-11.53,12.01,14.05,13.5c3.32-3.41,5.65-7.34,6.69-11.59-1.28-5.25-4.54-10.02-9.21-13.91Z"/>
    <path class="cls-1" d="M167.42,96.84c.4-1.63.62-3.31.62-5.02,0-5.05-1.85-9.82-5.03-13.96l-4.87,5.04c4.68,3.89,7.99,8.68,9.27,13.93Z"/>
    <path class="cls-1" d="M176.57,144.69l-11.54-11.08c-1.85,1.26-3.82,2.43-5.88,3.5l17.42,16.72,53.71-55.94-.06-9.06-53.65,55.85Z"/>
    <path class="cls-1" d="M137.44,107.13l-9.5-9.12-7.27-6.94-.03,9.07,10.22,9.82,9.77,9.38c2.48-.62,4.86-1.4,7.09-2.33l-10.29-9.87Z"/>
    <polygon class="cls-1" points="174.78 56.54 167.13 64.5 158.7 73.29 152.95 79.27 142.06 90.62 146.62 95 158.21 82.93 163.06 77.88 171.94 68.64 174.78 65.68 204.31 93.99 208.88 89.24 174.78 56.54"/>
    <path class="cls-4" d="M171.94,68.64l-8.88,9.25c3.17,4.14,4.98,8.89,4.98,13.94,0,1.71-.22,3.39-.62,5.02-1.03,4.25-3.36,8.19-6.69,11.59-3.4,3.49-7.84,6.42-13.01,8.57-2.23.93-4.61,1.71-7.09,2.33-4.21,1.04-8.74,1.62-13.46,1.62-5.81,0-11.33-.87-16.33-2.43-6.82-2.12-12.66-5.53-16.93-9.8-1.56-1.55-2.9-3.22-4.02-4.99-1.37-2.18-2.38-4.49-2.97-6.9-.4-1.63-.61-3.31-.61-5.02,0-2.25.37-4.44,1.04-6.54l-10.2-10.32c-3.74,5.54-5.84,11.78-5.84,18.39,0,1.7.16,3.38.43,5.02.65,3.99,2.09,7.81,4.17,11.37,1.04,1.79,2.26,3.51,3.62,5.16,3.59,4.33,8.21,8.13,13.64,11.21,9.42,5.36,21.21,8.55,34.01,8.55,8.96,0,17.42-1.56,24.92-4.33,2.28-.84,4.46-1.79,6.55-2.85,4.84-2.45,9.13-5.44,12.71-8.86,6.01-5.74,10.02-12.68,11.26-20.25.27-1.64.42-3.32.42-5.02,0-9.27-4.13-17.82-11.1-24.72Z"/>
    <path class="cls-5" d="M137.39,107.19l10.25,9.84c5.16-2.15,9.64-5.05,13.05-8.54l-14.06-13.49-4.56-4.38,10.83-11.28,5.74-5.99,8.44-8.79,7.65-7.96,34.02,32.66-4.57,4.76-27.87,29.02c-2.93,4.02-6.74,7.59-11.24,10.67l11.45,11.05,53.71-55.93-55.93-53.7-20.95,21.81-8.38,8.73-7.72,8.03-16.58,17.35,16.72,16.13Z"/>
    <path class="cls-1" d="M90.12,104.02s.27.44.3.49c.82,1.3,1.95,2.5,3.01,3.69l16.71-7.72-38.4-35.76-1.05,5.53,30.12,29.83-10.7,3.94Z"/>
    <path class="cls-1" d="M183.04,93.35c0,1.7-.15,3.38-.42,5.02-1.24,7.57-5.25,14.51-11.26,20.25-3.58,3.42-7.87,6.41-12.71,8.86-2.09,1.05-4.27,2.01-6.55,2.85-7.5,2.77-15.96,4.33-24.92,4.33-12.8,0-24.59-3.2-34.01-8.55-5.42-3.08-10.05-6.88-13.64-11.21-1.37-1.65-2.58-3.37-3.62-5.16-2.08-3.56-3.52-7.37-4.17-11.37-.27-1.64-.43-3.32-.43-5.02,0-.54.04-1.07.07-1.59,0-.03-.02-.07-.02-.09-.27,1.64-.05,10.02-.05,11.73,0,2.69.36,5.32,1.03,7.87.52,1.99,1.23,3.93,2.12,5.8,2.24,4.73,5.61,9.07,9.87,12.83,10.25,9.04,25.64,14.8,42.85,14.8,11.94,0,23-2.78,32.08-7.49,2.06-1.07,4.02-2.24,5.86-3.5,4.5-3.08,8.32-6.7,11.25-10.72,4.25-5.82,6.67-12.49,6.67-19.58,0-1.5.13-8.58-.01-11.4-.03-.38.01.87.01,1.36Z"/>
  </g>
  <g>
    <path class="cls-4" d="M247.32,34.33h23.66l-2.23,9.11h-11.34l-1.12,4.79h11.83l-2.06,8.44h-11.68l-2.8,11.99h-12.22l7.96-34.33Z"/>
    <path class="cls-4" d="M274.19,34.33h12.22l-7.96,34.33h-12.22l7.96-34.33Z"/>
    <path class="cls-4" d="M289.61,34.53l.78-.1c3.92-.46,8.8-.77,11.49-.77,4.48,0,7.96.51,10.6,1.59,3.36,1.39,5.38,4.43,5.38,8.08,0,3.14-1.07,6.12-3.08,8.44-1.74,2.01-3.31,2.98-6.56,3.96l-.78.26c.34.26.45.36.62.52.95,1.08,3.81,6.64,6.22,12.15h-13.45c-1.74-4.89-2.24-6.18-4.54-11.73l-2.69,11.73h-11.88l7.9-34.12ZM298.63,50.7c3.92,0,6.67-2.32,6.67-5.61,0-1.75-1.29-2.63-3.81-2.63-.73,0-1.12.05-1.91.21l-1.85,7.93c.39.05.45.1.9.1Z"/>
    <path class="cls-4" d="M346.87,34.33h29.65l-2.07,9.94h-8.8l-5.83,24.39h-12.22l5.83-24.39h-9.54l2.98-9.94Z"/>
    <path class="cls-4" d="M365.54,62.52c1.65,0,2.98,1.33,2.98,2.97s-1.33,2.98-2.98,2.98-2.97-1.3-2.97-2.98,1.31-2.97,2.97-2.97ZM365.54,68.11c1.45,0,2.62-1.16,2.62-2.6s-1.16-2.62-2.62-2.62-2.6,1.16-2.6,2.6,1.15,2.62,2.6,2.62ZM364.39,63.98c.15-.01.17-.02.47-.05.3-.02.43-.03.55-.03.98,0,1.46.38,1.46,1.11,0,.44-.18.7-.58.85h-.05s.05.05.06.07c.1.09.45.61.74,1.08h-1.12c-.23-.43-.3-.54-.59-1.03v1.03h-.96v-3.03ZM365.46,65.4c.26,0,.42-.13.42-.37s-.14-.36-.4-.36c-.06,0-.07,0-.13.01v.7s.07.01.12.01Z"/>
    <path class="cls-4" d="M315.48,67.78c3.44,1.02,7.19,1.59,10.7,1.59,4.77,0,8.41-1.08,11.55-3.35,3.48-2.47,5.72-6.28,5.72-9.73,0-2.32-1.01-4.43-2.8-5.92-1.4-1.13-2.86-2.01-5.83-3.4l-2.41-1.13c-.79-.41-1.18-.82-1.18-1.29,0-1.24,1.57-2.16,3.7-2.16,1.59,0,3.49.46,7.12,1.65l2.51-9.29c-2.71-.74-5.36-1.11-8-1.11-9.98,0-17.66,5.46-17.66,12.51,0,3.71,2.47,6.33,8.63,9.21,2.91,1.34,3.42,1.7,3.42,2.62,0,1.39-1.51,2.26-3.98,2.26-2.19,0-4.99-.67-8.8-2.06h0s-2.68,9.57-2.68,9.57Z"/>
  </g>
</svg>