<?xml version="1.0" encoding="UTF-8"?>
<svg id="Layer_1" data-name="Layer 1" xmlns="http://www.w3.org/2000/svg" xmlns:xlink="http://www.w3.org/1999/xlink" viewBox="0 0 400 200">
  <defs>
    <style>
      .cls-1 {
        fill: #f57200;
      }

      .cls-1, .cls-2, .cls-3, .cls-4, .cls-5, .cls-6, .cls-7, .cls-8, .cls-9 {
        stroke-width: 0px;
      }

      .cls-2 {
        fill: #e2daad;
      }

      .cls-3 {
        fill: url(#radial-gradient-2);
      }

      .cls-4 {
        fill: url(#radial-gradient-5);
      }

      .cls-5 {
        fill: url(#radial-gradient);
      }

      .cls-6 {
        fill: url(#radial-gradient-6);
      }

      .cls-7 {
        fill: url(#radial-gradient-3);
      }

      .cls-8 {
        fill: #e4daaf;
      }

      .cls-9 {
        fill: url(#radial-gradient-4);
      }
    </style>
    <radialGradient id="radial-gradient" cx="69.27" cy="99.31" fx="69.27" fy="99.31" r="31.51" gradientUnits="userSpaceOnUse">
      <stop offset="0" stop-color="#b30d0d"/>
      <stop offset=".32" stop-color="#ae0d0c"/>
      <stop offset=".65" stop-color="#a20d0a"/>
      <stop offset=".99" stop-color="#8d0d07"/>
      <stop offset="1" stop-color="#8d0e07"/>
    </radialGradient>
    <radialGradient id="radial-gradient-2" cx="69.27" cy="99.31" fx="69.27" fy="99.31" r="31.51" xlink:href="#radial-gradient"/>
    <radialGradient id="radial-gradient-3" cy="99.31" fy="99.31" r="31.51" xlink:href="#radial-gradient"/>
    <radialGradient id="radial-gradient-4" cx="69.27" cy="99.31" fx="69.27" fy="99.31" r="31.51" xlink:href="#radial-gradient"/>
    <radialGradient id="radial-gradient-5" cx="69.27" cy="99.31" fx="69.27" fy="99.31" r="31.51" xlink:href="#radial-gradient"/>
    <radialGradient id="radial-gradient-6" cx="69.27" cy="99.31" fx="69.27" fy="99.31" r="31.51" xlink:href="#radial-gradient"/>
  </defs>
  <g>
    <g>
      <path class="cls-1" d="M308.49,115.92h-34.28l5.2-9.54h6.42s6.33,0,6.33,0l-4.09-7.73-4.04-7.47-6.78,12.15-6.93,12.59h-10.93l.65-1.34,13.76-24.89s2.64-4.8,3.95-7.22c.68-1.25,1.52-2.35,2.46-3.42,1.82-2.07,6.14-2.18,8.02.1.75.91,1.51,1.8,2.07,2.84,5.81,10.84,17.46,32.51,17.46,32.51l.74,1.43Z"/>
      <path class="cls-1" d="M196.21,106.16h22.16s-5.5,9.75-5.5,9.75h-1.65s-17,0-25.49,0c-.55,0-1.1.05-1.63-.04-1.49-.25-2.57-1.08-3.16-2.48-.75-1.78-.48-3.53.38-5.18.39-.75.93-1.45,1.52-2.05,5.77-5.81,11.56-11.59,17.34-17.38.25-.25.93-.93.93-.93,0,0-7.3,0-10.8,0-3.5,0-10.54-.01-10.54-.01l5.62-9.91,1.48-.02s16.38.02,24.56.02c.31,0,.62,0,.94,0,2.63.06,4.41,1.72,4.53,4.34.09,1.95-.48,3.66-1.87,5.08-1.91,1.95-3.85,3.93-5.77,5.87-3.95,3.99-8.06,7.95-12.02,11.93-.21.21-1.02,1.02-1.02,1.02Z"/>
      <path class="cls-1" d="M235.72,106.16h22.16s-5.5,9.75-5.5,9.75h-1.65s-17,0-25.49,0c-.55,0-1.1.05-1.63-.04-1.49-.25-2.57-1.08-3.16-2.48-.75-1.78-.48-3.53.38-5.18.39-.75.93-1.45,1.52-2.05,5.77-5.81,11.56-11.59,17.34-17.38.25-.25.93-.93.93-.93,0,0-7.3,0-10.8,0-3.5,0-10.54-.01-10.54-.01l5.62-9.91,1.48-.02s16.38.02,24.56.02c.31,0,.62,0,.94,0,2.63.06,4.41,1.72,4.53,4.34.09,1.95-.48,3.66-1.87,5.08-1.91,1.95-3.85,3.93-5.77,5.87-3.95,3.99-8.06,7.95-12.02,11.93-.21.21-1.02,1.02-1.02,1.02Z"/>
      <path class="cls-1" d="M129.14,77.67s13.39-.05,19.81,0c2.82.02,5.45.83,7.84,2.37,2.5,1.61,4.2,3.81,5.11,6.63.99,3.08,1.08,6.21.41,9.37-1.09,5.18-4.36,8.26-9.31,9.76-1.91.58-3.89.77-5.87.78-4.28.02-12.85,0-12.85,0h-2.05v9.34h-9.17l-.07-19.38s17.23.03,24.85.04c.88,0,1.74-.04,2.58-.3,1.6-.49,2.78-1.95,2.74-4.25-.05-2.38-1.02-3.79-4.41-4.24-.55-.05-1.7-.06-1.7-.06-7.14,0-21.42,0-21.42,0l-2.42.02,5.92-10.08Z"/>
      <polygon class="cls-1" points="176.42 77.63 176.41 115.92 167.3 115.92 167.18 77.63 176.42 77.63"/>
      <g>
        <path class="cls-1" d="M336.89,108.8s.06-.05.08-.06c-.03.02-.05.04-.08.06Z"/>
        <path class="cls-1" d="M336.83,108.85s.04-.03.06-.05c-.02.01-.04.03-.06.05Z"/>
        <path class="cls-1" d="M336.78,108.89s.03-.03.05-.04c-.03.02-.05.04-.05.04Z"/>
        <path class="cls-1" d="M336.78,108.81s5.49-4.74,8.26-7.89c1.73-1.97,3.19-3.88,4.21-6.31.84-1.98,1.47-4.09,1.28-6.21-.35-3.95-1.99-7.27-5.5-9.47-2.47-1.55-5.23-2.23-8.05-2.56-2.91-.34-5.72-.2-8.58.54-1.9.48-3.63.9-5.56,2.05v2.68c1.03-.35,1.77-.62,2.52-.85,3.64-1.13,7.34-1.87,11.19-1.6,2.69.19,5.09,1.1,7.12,2.86,2.31,1.99,3.4,4.59,3.06,7.6-.33,2.87-1.43,5.49-3.38,7.69-.89,1.01-1.79,2.01-2.73,2.97-2.71,2.78-5.73,5.22-8.7,7.72-1.15.97-2.27,1.9-3.39,2.91-.13.12-.39.36-.51.56-.08.13-.06.23-.06.42,7.81,0,23.54,0,23.54,0v-3.09s-13.93.05-14.74,0Z"/>
        <path class="cls-1" d="M337.09,108.66s0,0,0,0h0Z"/>
        <path class="cls-1" d="M336.98,108.74c.05-.04.1-.07.11-.09-.01,0-.04.03-.11.09Z"/>
      </g>
      <path class="cls-1" d="M351.51,112.83v3.09s-19.19-.04-28.21-.06c-.14,0-.51,0-.51,0v-5.56s2.18-1.69,3.29-2.59c4.49-3.63,8.92-7.34,12.76-11.68,1.11-1.25,2.13-2.55,2.78-4.1.27-.65.5-1.35.72-2.02.59-2.48-.92-4.69-2.61-5.57-1.65-.86-3.42-1.2-5.24-1.29-2.55-.13-5.02.46-7.44,1.17-.91.26-1.78.64-2.68.93-.43.14-1.52.58-1.52.58v-3.19s2.22-.88,4.9-1.56c2.32-.59,5.05-.98,6.91-.98,1.58,0,3.16.05,4.68.59,1.58.56,3.04,1.32,4.23,2.54,1.2,1.23,1.92,2.67,2.11,4.39.28,2.61-.22,5.06-1.62,7.25-.84,1.32-1.85,2.57-2.9,3.74-2.23,2.47-4.76,4.63-7.3,6.78-1.99,1.68-4.03,3.31-6.05,4.96-.72.63-.88.8-.77,2.49,0,0,14.95.08,21.6.1.78,0,2.89,0,2.89,0Z"/>
      <polygon class="cls-1" points="364.19 115.92 359.25 115.92 359.34 82.06 355.59 82.07 360.54 77.08 364.18 77.08 364.19 115.92"/>
    </g>
    <rect class="cls-1" x="347.98" y="94.34" width="38.84" height="4.33" transform="translate(270.26 463.73) rotate(-89.9)"/>
  </g>
  <g>
    <g>
      <path class="cls-5" d="M41,92.73s4.98,1.87,15.26,3.05c0,0,3.83.55,7.22,1.11l1.44.18s1.63.26,1.3-1.47l-3.36-7.01s-3.28-6.21-4.75-9.33c-1.47-3.12-3.64-7.25-3.64-7.25,0,0-.62-1.06-1.96-.08,0,0-10.23,4.36-13.91,18.38,0,0-.31,1.43,1.07,1.94l1.33.47Z"/>
      <path class="cls-2" d="M45.67,87.7c-.76-2.33.41-4.84,2.7-5.51.97-.29,1.52-.3,2.77-.14-.59-.4-1.3-.68-2.24-.68-2.45,0-4.44,1.99-4.44,4.44,0,1.92,1.19,3.6,3.16,4.35-.78-.53-1.62-1.49-1.94-2.46Z"/>
      <path class="cls-2" d="M58.62,87.51c-.98-1.23-2.85-1.32-3.85-.47-.38.32-.55.73-.65,1.09-.05.19-.07.34-.09.55.17-.42.32-.69.49-.9.39-.49.69-.7,1.57-.81.77-.1,1.56.35,2.05.95.26.31.34.67.41,1.05.17.95-.13,1.94-.99,2.68-.34.3-.83.31-1.14.4.54-.05,1.1-.07,1.74-.55.84-.63,1.1-1.65.97-2.62-.07-.48-.18-.97-.51-1.38Z"/>
      <path class="cls-1" d="M52.31,70.11c.82-.49.54-1.26.54-1.26l-1.32-2.69c-.71-.73-1.63-.04-1.63-.04l-3.24,2.35s-2.54,2.42-4.46,3.53c-1.92,1.11-4.34,4.7-4.34,4.7l-1.86,3.23s-2.56,5.49-2.99,7.38c0,0-.6,2.14.28,2.45l2.36,1.19s1.2.58,1.52-1.26c.74-4.28,3.27-8.31,4.65-10.25.25-.35.49-.64.68-.84.22-.24.43-.5.62-.77.14-.19.34-.45.62-.76,1.43-1.56,4.37-4.45,8.58-6.97Z"/>
    </g>
    <g>
      <path class="cls-3" d="M67.86,101.52c.31.15.5.48.65.79,3.49,6.96,3.02,15.32,6.28,22.43.35.76.65,1.54.9,2.34.15.47.31,1.05.06,1.5-.23.41-.71.58-1.16.71-4.25,1.19-9.78.87-14.06-.22-2.18-.56-5.08-1.78-8.1-3.55-3.32-1.95-7.24-5.58-7.52-5.92-.48-.58-.13-1.42.85-2,.71-.42,1.34-.95,1.91-1.44,1.23-1.05,3.37-2.53,4.68-3.48l5.24-4.23c.55-.44,1.11-.87,1.69-1.27l5.62-3.9c.45-.33,1.13-.93,1.53-1.32.38-.36.93-.67,1.43-.43Z"/>
      <path class="cls-8" d="M53.23,118.82c0-1.5,1.23-2.71,2.75-2.71.38,0,.74.08,1.07.21-.47-.35-1.06-.56-1.7-.56-1.57,0-2.84,1.25-2.84,2.78,0,1.36,1,2.49,2.31,2.73-.94-.43-1.6-1.37-1.6-2.46Z"/>
      <path class="cls-8" d="M67.47,107.78c-.82-.92-2.28-.91-3.21,0-.28.28-.42.6-.47.86.46-1,1.36-1.47,2.29-1.14,1.01.35,1.46,1.45,1.19,2.56-.2.86-1.16,1.38-1.89,1.5.54-.02,1.35-.14,1.8-.54.98-.87,1.11-2.32.29-3.25Z"/>
      <path class="cls-8" d="M69.39,121.41c-.09-2.54-2.42-4.43-5.11-4.2-.81.07-1.46.4-1.87.75,2.04-.98,4.41-.46,5.47,1.28,1.14,1.87.34,4.44-1.79,5.74-1.55.94-3.36.95-4.68.17.89.69,2.03,1.08,3.27,1.04,2.69-.1,4.8-2.23,4.71-4.77Z"/>
      <path class="cls-1" d="M69.71,135.84c-3.18.07-6.6-.49-9.96-1.51-2.58-.78-5.18-1.48-7.77-2.24-4.05-1.19-7.59-3.22-10.39-6.42-.49-.55-.94-1.14-1.37-1.73-.48-.66-.37-1.27.29-1.79.58-.45,1.17-.9,1.78-1.32.64-.44,1.15-.38,1.73.13.85.75,1.66,1.54,2.53,2.27,4.44,3.71,9.46,6.31,15.09,7.68,3.23.79,6.52.95,9.82.64,1.21-.11,2.42-.36,3.61-.71.93-.28,1.36-.02,1.66.91.21.65.43,1.31.56,1.98.23,1.14-.1,1.54-1.21,1.72-1.56.26-3.13.33-4.7.38-.44.01-.89,0-1.67,0Z"/>
    </g>
    <g>
      <path class="cls-7" d="M64.63,100.32c-.08.46-.48.79-.84,1.08-6.5,5.11-13.01,10.21-19.51,15.32-.14.11-.28.22-.45.26-.48.13-.91-.31-1.21-.7-3.24-4.29-4.95-9.63-5.16-15-.09-2.19-.12-4.39.39-6.52.06-.24.16-.61.49-.78.42-.22.86-.19,1.14-.14,1.23.21,9.35,2.79,12.36,3.44,3.03.66,6.09,1.19,9.17,1.59.8.1,1.61.18,2.41.29.6.08,1.36.4,1.23,1.16Z"/>
      <path class="cls-8" d="M46.96,108.3c-2.11,0-3.82-1.87-3.82-4.19,0-1.81,1.05-3.35,2.52-3.93-1.92.39-3.38,2.2-3.38,4.39,0,2.47,1.85,4.47,4.14,4.47,1.75,0,3.25-1.18,3.85-2.84-.66,1.26-1.89,2.11-3.31,2.11Z"/>
      <path class="cls-1" d="M38.42,120.94c-.33-.23-.67-.41-.96-.67-1.95-1.8-3.46-3.9-4.39-6.39-.43-1.16-.62-2.37-.79-3.58-.05-.38-.13-.77-.25-1.14-.71-2.25-1.26-4.55-1.49-6.89-.17-1.75-.18-3.53.14-5.3.17-.97.38-1.92.67-2.86.07-.23.18-.46.26-.69.18-.47.55-.74,1.03-.66,1.01.18,2.02.42,3.01.69.34.09.55.42.55.81,0,.34,0,.7-.06,1.03-.4,2.04-.56,4.09-.46,6.16.28,5.47,1.76,10.54,4.99,15.03.23.32.48.63.68.96.26.42.26,1.12-.07,1.38-.86.66-1.55,1.52-2.54,2-.04.02-.09.04-.32.12Z"/>
    </g>
    <g>
      <path class="cls-9" d="M101.41,110.85c.25.05.52.1.72.27.39.33.33.94.23,1.44-1,4.86-3.62,9.25-7.17,12.72-3.54,3.47-7.88,6-12.76,6.9-.2.04-.41.07-.59-.01-.21-.09-.33-.32-.43-.53-1.87-3.85-2.68-8.08-3.29-12.36-.64-4.48-1.09-8.91-2.8-13.05-.19-.46-.25-1.15.15-1.44.18-.14.59-.18.82-.17,1.15.05,2.44.41,3.56.69,1.99.51,3.23.76,5.24,1.14,2.16.4,4.42,1.12,6.51,1.78,1.03.33,2.3.52,3.32.88s2.05.86,3.09,1.11c1.11.27,2.28.42,3.41.63Z"/>
      <path class="cls-8" d="M83.56,115.03c-1.53,0-2.76-1.24-2.76-2.76,0-.64.22-1.23.59-1.7-.67.5-1.1,1.28-1.1,2.17,0,1.5,1.24,2.72,2.76,2.72.81,0,1.53-.34,2.04-.89-.44.29-.96.46-1.53.46Z"/>
      <path class="cls-1" d="M105.45,112.35c.6.15,1.52.32,2.41.6.63.19.92.76.75,1.42-.26,1.05-.51,2.1-.89,3.11-.69,1.84-1.46,3.65-2.23,5.46-1,2.36-2.59,4.28-4.48,5.98-1.47,1.32-3.13,2.39-4.88,3.3-1.71.89-3.28,1.98-4.75,3.23-1.51,1.28-3.19,2.31-5.16,2.74-.62.14-1.25.28-1.88.36-.47.06-.91-.13-1.09-.58-.35-.86-.68-1.74-.95-2.63-.17-.55.16-1.08.72-1.29.18-.07.38-.08.57-.13,4.03-1.11,7.73-2.85,11.01-5.49,3.45-2.77,6.01-6.21,7.78-10.25.63-1.44,1.1-2.94,1.49-4.47.05-.19.05-.39.12-.58.17-.48.61-.77,1.46-.77Z"/>
      <path class="cls-8" d="M85.41,120.72c.17.21.74.74.92.88,1.86,1.4,4.46,1,6.02-.42,1.15-1.05,1.86-2.29,1.75-3.88-.1-1.35-.51-2.63-1.67-3.37-.75-.48-1.6-.78-2.51-.83-.38-.02-1.12-.02-1.88.09,2.01-.7,3.87-.4,5.42.55,1.22.76,2.27,2.66,1.96,4.74-.36,3.22-3.7,5.04-6.1,4.81-1.46-.14-2.59-.51-3.5-1.75-.24-.3-.42-.81-.42-.81Z"/>
    </g>
    <g>
      <path class="cls-4" d="M57.83,74.44c-.17-.27-.31-.56-.44-.85-.28-.62-.71-1.18-1.03-1.78-.39-.73-.43-1.24.01-1.94.28-.44,1.05-.55,1.54-.74,3.66-1.48,8.01-1.59,13.96-1.22,5.84.36,10.25,1.97,12.58,3.89,1.09.9,2.19,1.89,2.98,3.05.11.16.21.32.24.51.09.51-.33.95-.7,1.29-5.31,4.89-5.72,5.95-10.6,11.44-.68.77-4.68,5.57-5.91,6.97-.23.26-.48.5-.82.52-.71.06-1.14-.53-1.39-1.2-.09-.24-10.26-19.57-10.31-19.81l-.09-.15Z"/>
      <path class="cls-8" d="M68.73,75.58c-.9.35-1.45.64-1.87.95-.23.17-.43.38-.59.61-.65.91-.81,1.94-.58,3.11.16.79.44,1.48.95,2.11,1.23,1.55,3.47,1.74,4.74.69,1-.82,1.09-1.26,1.24-1.64-.14.84-.44,1.33-.59,1.54-.69.91-.92,1.05-2.2,1.46-.11.03-.22.06-.33.08-.43.07-.83.05-1.26-.05-1.56-.35-2.62-1.05-3.25-2.5-.77-1.78-.63-3.44.63-4.96.69-.83,1.89-1.37,3.11-1.41Z"/>
      <path class="cls-8" d="M76.93,74.79c.58-1.15,1.61-1.33,2.4-1.21.41.1.51.17.72.32.27.2.51.47.67.85.07.17.17.45.19.62.04.44-.03.88-.15,1.21-.23.63-.62,1.01-1.35,1.3-.21.08-.82.17-1.09.1.56-.03.82-.13,1.09-.27.4-.21.79-.66.95-1.21.22-.77.04-1.69-.55-2.14-.13-.1-.31-.27-.59-.36-.37-.12-.62-.1-.87-.07-.41.05-.71.21-1.41.87Z"/>
      <path class="cls-1" d="M87.57,72.82c.38.52.8,1.16,1.43,1,.22-.06.47-.21.63-.36.5-.45.99-.9,1.49-1.35.22-.2.46-.42.53-.71.13-.49-.21-.96-.54-1.34-2.43-2.77-5.63-4.82-9.08-6.11-3.35-1.25-6.87-1.76-10.42-2.15-1.78-.2-3.57-.38-5.36-.35-1.52.03-3.03.21-4.54.22-1.09,0-2.12.02-3.18.29-.73.18-1.42.54-2.09.88-.62.32-1.25.63-1.87.95-.28.15-.63.26-.81.52-.47.66-.06,1.49.45,2.25,0,0,.08.15.32.84,0,0,.56,1.54,2.15.55l3.01-1s5.66-1.26,14.66-.48c8.76.75,13.21,6.36,13.21,6.36Z"/>
    </g>
    <g>
      <path class="cls-6" d="M90.23,77.39c-.66-.56-1.2-.24-1.57-.05-.49.25-.87.8-1.27,1.2-.69.69-1.16,1.17-1.84,1.86-1.42,1.46-2.76,3-4.02,4.61-1.31,1.68-1.91,2.95-3.4,4.47-.78.8-1.96,2.45-2.71,3.29-.7.79-1.88,2.25-2.52,3.1-.47.63-.83,1.05-.6,1.76.16.49.97.57,1.96.72.39.06,1.68.26,2.07.3.65.06,1.56.31,2.19.46,1.75.41,2.07.59,3.65,1.09,1.63.52,3.19,1.23,4.82,1.72.96.29,1.95.56,2.88.92.87.34,5.82,2,6.48,2.24.62.23,2.27,1,2.77.16.19-.33.26-.81.32-1.18.08-.46.26-3.9-.21-7.85-.26-2.19-.86-4.89-1.44-6.49-.3-.82-.31-.92-1.13-2.81-2.22-5.09-6.46-9.53-6.46-9.53Z"/>
      <path class="cls-8" d="M83.51,89.17c.14-1.46.34-1.82.79-2.56.71-1.02,1.61-1.82,2.87-2.18,2.59-.74,4.7.15,6.11,2.07,1.29,1.76,1.05,4.53-.28,6.29-.74.97-1.91,1.62-3.42,1.93-.07.01-.15.03-.22.03-1.61.16-2.24-.19-3.29-.82,0,0,1.13.48,1.93.59.8.11,1.85-.21,2.3-.42,1.61-.75,2.61-2.03,2.71-3.92.09-1.84-.8-3.57-2.4-4.49-1.97-1.13-4.29-.81-5.96,1-.28.3-.55.64-.72,1.02-.13.3-.3.69-.42,1.47Z"/>
      <path class="cls-8" d="M96.23,98.69c.1,1.68-1.34,2.77-2.89,2.12-1.23-.51-1.94-1.65-1.43-3.1.04-.13.32-.64.64-.85-.43.65-.43,1.23-.42,1.39,0,.06.01.33.14.68.09.26.39.65.61.83.48.4.87.45,1.38.46.82,0,1.56-.31,1.72-1.12.02-.09.04-.49.04-.67-.01-.39-.14-.86-.13-.84.23.35.35.89.36,1.12Z"/>
      <path class="cls-1" d="M90.95,75.57c.06-.74.62-1.14.95-1.44.71-.65,1.1-1.38,2.17-1.39.45,0,.84.53,1.03.83.25.39,2.22,3.06,3.38,5.19.64,1.17,1.5,2.19,2.17,3.36.42.74.85,1.39,1.32,2.1.43.65.79,1.35,1.15,2.05.67,1.33,1.07,2.7,1.47,4.12.19.69.11,1.05.19,1.62.1.76.07.73.35,1.46.27.69.48,2.4.54,3.13.06.77.25,1.52.29,2.29.07,1.39.02,2.65-.25,4-.19.97-.18,2.02-.44,2.98-.14.5-.35.74-.89.75-.49,0-1.01-.13-1.5-.2-.52-.08-.98-.17-1.46-.38-.21-.09-.45-.11-.54-.35-.11-.29-.07-1,0-1.29.27-1.28.1-2.37.18-3.68.07-1.15-.02-2.43-.17-3.58-.16-1.27-.35-2.53-.65-3.77-.57-2.37-1.26-4.72-2.22-6.95-.44-1.03-1.03-2-1.54-2.99-.24-.46-.43-.94-.69-1.39s-.66-.84-.97-1.26c-.68-.91-1.21-1.93-2.02-2.74-.35-.35-1.12-1.4-1.3-1.59,0,0-.56-.54-.53-.89Z"/>
    </g>
  </g>
</svg>